<svg width="147" height="37" viewBox="0 0 147 37" fill="none" xmlns="http://www.w3.org/2000/svg">
<path d="M0.9 15.054C0.9 13.1287 1.26733 11.3047 2.002 9.582C2.73667 7.85933 3.75 6.33933 5.042 5.022C6.35933 3.67933 7.87933 2.628 9.602 1.868C11.3247 1.108 13.1613 0.727999 15.112 0.727999C17.088 0.727999 18.9373 1.108 20.66 1.868C22.3827 2.628 23.9027 3.67933 25.22 5.022C26.5627 6.33933 27.6013 7.85933 28.336 9.582C29.096 11.3047 29.476 13.1287 29.476 15.054C29.476 17.03 29.096 18.8793 28.336 20.602C27.6013 22.3247 26.5627 23.8447 25.22 25.162C23.9027 26.454 22.3827 27.4673 20.66 28.202C18.9373 28.9367 17.1007 29.304 15.15 29.304C13.174 29.304 11.3247 28.9367 9.602 28.202C7.87933 27.4673 6.35933 26.454 5.042 25.162C3.75 23.8447 2.73667 22.3247 2.002 20.602C1.26733 18.8793 0.9 17.03 0.9 15.054ZM6.6 15.054C6.6 16.7007 6.98 18.208 7.74 19.576C8.52533 20.9187 9.57667 21.9953 10.894 22.806C12.2113 23.5913 13.6933 23.984 15.34 23.984C16.936 23.984 18.3673 23.5913 19.634 22.806C20.926 21.9953 21.9393 20.9187 22.674 19.576C23.4087 18.208 23.776 16.7007 23.776 15.054C23.776 13.3567 23.396 11.8367 22.636 10.494C21.876 9.126 20.85 8.04933 19.558 7.264C18.266 6.45333 16.8093 6.048 15.188 6.048C13.5667 6.048 12.11 6.45333 10.818 7.264C9.526 8.04933 8.5 9.126 7.74 10.494C6.98 11.8367 6.6 13.3567 6.6 15.054ZM40.7074 29.456C39.2887 29.456 37.9714 29.114 36.7554 28.43C35.5647 27.746 34.602 26.758 33.8674 25.466C33.158 24.1487 32.8034 22.5527 32.8034 20.678C32.8034 18.778 33.2087 17.1567 34.0194 15.814C34.83 14.446 35.8814 13.3947 37.1734 12.66C38.4907 11.9253 39.9094 11.558 41.4294 11.558C42.848 11.558 44.026 11.7987 44.9634 12.28C45.9007 12.736 46.724 13.344 47.4334 14.104L47.0154 15.244V12.014H52.3354V36.98H47.0534V25.77L47.1294 27.48C46.4707 28.0373 45.584 28.506 44.4694 28.886C43.38 29.266 42.126 29.456 40.7074 29.456ZM42.6074 25.276C43.6714 25.276 44.596 25.0353 45.3814 24.554C46.1667 24.0727 46.7114 23.4267 47.0154 22.616V18.55C46.5594 17.714 45.9767 17.0933 45.2674 16.688C44.558 16.2573 43.6714 16.042 42.6074 16.042C41.822 16.042 41.0874 16.2447 40.4034 16.65C39.7447 17.0553 39.2127 17.6127 38.8074 18.322C38.402 19.0313 38.1994 19.8293 38.1994 20.716C38.1994 21.6027 38.402 22.388 38.8074 23.072C39.2127 23.756 39.7447 24.3007 40.4034 24.706C41.0874 25.086 41.822 25.276 42.6074 25.276ZM59.3663 5.098H64.6863V12.318H68.7143V16.46H64.6863V29H59.3663V16.46H56.7823V12.318H59.3663V5.098ZM79.7553 29.456C78.21 29.456 76.804 29.152 75.5373 28.544C74.296 27.9107 73.308 26.948 72.5733 25.656C71.8387 24.364 71.4713 22.7173 71.4713 20.716C71.4713 18.8413 71.8513 17.22 72.6113 15.852C73.3713 14.484 74.372 13.4327 75.6133 12.698C76.8547 11.938 78.172 11.558 79.5653 11.558C81.212 11.558 82.4533 11.8367 83.2893 12.394C84.1507 12.926 84.86 13.5213 85.4173 14.18L85.1893 14.826L85.6833 12.394H90.6233V29H85.3033V25.39L85.7213 26.53C85.6707 26.53 85.5187 26.682 85.2653 26.986C85.012 27.2647 84.632 27.6067 84.1253 28.012C83.644 28.392 83.036 28.7213 82.3013 29C81.592 29.304 80.7433 29.456 79.7553 29.456ZM81.2753 25.124C82.238 25.124 83.0487 24.9213 83.7073 24.516C84.366 24.0853 84.898 23.452 85.3033 22.616V18.55C84.9993 17.7393 84.4673 17.0933 83.7073 16.612C82.9727 16.1307 82.0987 15.89 81.0853 15.89C80.3253 15.89 79.616 16.0927 78.9573 16.498C78.324 16.878 77.8173 17.41 77.4373 18.094C77.0573 18.778 76.8673 19.5633 76.8673 20.45C76.8673 21.3367 77.07 22.1347 77.4753 22.844C77.8807 23.5533 78.4127 24.1107 79.0713 24.516C79.7553 24.9213 80.49 25.124 81.2753 25.124ZM96.1051 12.394H101.425V29H96.1051V12.394ZM95.9911 6.504C95.9911 5.71867 96.2951 5.07267 96.9031 4.566C97.5365 4.05933 98.2078 3.806 98.9171 3.806C99.6265 3.806 100.272 4.05933 100.855 4.566C101.463 5.07267 101.767 5.71867 101.767 6.504C101.767 7.28933 101.463 7.93533 100.855 8.442C100.272 8.92333 99.6265 9.164 98.9171 9.164C98.2078 9.164 97.5365 8.92333 96.9031 8.442C96.2951 7.93533 95.9911 7.28933 95.9911 6.504ZM105.612 20.488C105.612 18.7907 106.005 17.2707 106.79 15.928C107.601 14.5853 108.728 13.534 110.172 12.774C111.616 11.9887 113.275 11.596 115.15 11.596C117.05 11.596 118.697 11.9887 120.09 12.774C121.483 13.534 122.547 14.5853 123.282 15.928C124.042 17.2707 124.422 18.7907 124.422 20.488C124.422 22.1853 124.042 23.718 123.282 25.086C122.547 26.4287 121.483 27.4927 120.09 28.278C118.697 29.0633 117.025 29.456 115.074 29.456C113.25 29.456 111.616 29.1013 110.172 28.392C108.753 27.6827 107.639 26.6567 106.828 25.314C106.017 23.9713 105.612 22.3627 105.612 20.488ZM110.97 20.526C110.97 21.3873 111.147 22.1727 111.502 22.882C111.857 23.566 112.338 24.1107 112.946 24.516C113.554 24.9213 114.238 25.124 114.998 25.124C116.239 25.124 117.227 24.6933 117.962 23.832C118.697 22.9453 119.064 21.8433 119.064 20.526C119.064 19.2087 118.697 18.1193 117.962 17.258C117.227 16.3713 116.239 15.928 114.998 15.928C114.238 15.928 113.554 16.1307 112.946 16.536C112.338 16.9413 111.857 17.486 111.502 18.17C111.147 18.854 110.97 19.6393 110.97 20.526ZM135.225 29.456C133.806 29.456 132.489 29.114 131.273 28.43C130.082 27.746 129.12 26.758 128.385 25.466C127.676 24.1487 127.321 22.5527 127.321 20.678C127.321 18.778 127.726 17.1567 128.537 15.814C129.348 14.446 130.399 13.3947 131.691 12.66C133.008 11.9253 134.427 11.558 135.947 11.558C137.366 11.558 138.544 11.7987 139.481 12.28C140.418 12.736 141.242 13.344 141.951 14.104L141.533 15.244V12.014H146.853V36.98H141.571V25.77L141.647 27.48C140.988 28.0373 140.102 28.506 138.987 28.886C137.898 29.266 136.644 29.456 135.225 29.456ZM137.125 25.276C138.189 25.276 139.114 25.0353 139.899 24.554C140.684 24.0727 141.229 23.4267 141.533 22.616V18.55C141.077 17.714 140.494 17.0933 139.785 16.688C139.076 16.2573 138.189 16.042 137.125 16.042C136.34 16.042 135.605 16.2447 134.921 16.65C134.262 17.0553 133.73 17.6127 133.325 18.322C132.92 19.0313 132.717 19.8293 132.717 20.716C132.717 21.6027 132.92 22.388 133.325 23.072C133.73 23.756 134.262 24.3007 134.921 24.706C135.605 25.086 136.34 25.276 137.125 25.276Z" fill="#2D72B7"/>
</svg>
