<svg width="32" height="32" viewBox="0 0 32 32" fill="none" xmlns="http://www.w3.org/2000/svg">
<g clip-path="url(#clip0_6_2)">
<path d="M7.5 18.99C7.5 17.47 7.79 16.03 8.37 14.67C8.95 13.31 9.75 12.11 10.77 11.07C11.81 10.01 13.01 9.18 14.37 8.58C15.73 7.98 17.19 7.68 18.75 7.68C20.29 7.68 21.74 7.98 23.1 8.58C24.46 9.18 25.66 10.01 26.7 11.07C27.76 12.11 28.58 13.31 29.16 14.67C29.76 16.03 30.06 17.47 30.06 18.99C30.06 20.25 29.85 21.46 29.43 22.62C29.03 23.76 28.48 24.8 27.78 25.74H31.29V30H21.06C20.3 30.16 19.53 30.24 18.75 30.24C17.19 30.24 15.73 29.95 14.37 29.37C13.01 28.79 11.81 27.99 10.77 26.97C9.75 25.93 8.95 24.73 8.37 23.37C7.79 22.01 7.5 20.55 7.5 18.99ZM12 18.99C12 20.27 12.3 21.45 12.9 22.53C13.52 23.59 14.35 24.44 15.39 25.08C16.43 25.7 17.6 26.01 18.9 26.01C20.16 26.01 21.29 25.7 22.29 25.08C23.31 24.44 24.11 23.59 24.69 22.53C25.27 21.47 25.56 20.29 25.56 18.99C25.56 17.69 25.26 16.52 24.66 15.48C24.06 14.42 23.25 13.58 22.23 12.96C21.21 12.32 20.06 12 18.78 12C17.5 12 16.35 12.32 15.33 12.96C14.31 13.58 13.5 14.42 12.9 15.48C12.3 16.52 12 17.69 12 18.99Z" fill="#2D72B7"/>
<path d="M0.5 11.99C0.5 10.47 0.79 9.03 1.37 7.67C1.95 6.31 2.75 5.11 3.77 4.07C4.81 3.01 6.01 2.18 7.37 1.58C8.73 0.979999 10.19 0.679999 11.75 0.679999C13.29 0.679999 14.74 0.979999 16.1 1.58C17.46 2.18 18.66 3.01 19.7 4.07C20.76 5.11 21.58 6.31 22.16 7.67C22.76 9.03 23.06 10.47 23.06 11.99C23.06 13.55 22.76 15.01 22.16 16.37C21.58 17.73 20.76 18.93 19.7 19.97C18.66 20.99 17.46 21.79 16.1 22.37C14.74 22.95 13.29 23.24 11.75 23.24C10.19 23.24 8.73 22.95 7.37 22.37C6.01 21.79 4.81 20.99 3.77 19.97C2.75 18.93 1.95 17.73 1.37 16.37C0.79 15.01 0.5 13.55 0.5 11.99ZM5 11.99C5 13.29 5.3 14.48 5.9 15.56C6.52 16.62 7.35 17.47 8.39 18.11C9.43 18.73 10.6 19.04 11.9 19.04C13.16 19.04 14.29 18.73 15.29 18.11C16.31 17.47 17.11 16.62 17.69 15.56C18.27 14.48 18.56 13.29 18.56 11.99C18.56 10.65 18.26 9.45 17.66 8.39C17.06 7.31 16.25 6.46 15.23 5.84C14.21 5.2 13.06 4.88 11.78 4.88C10.5 4.88 9.35 5.2 8.33 5.84C7.31 6.46 6.5 7.31 5.9 8.39C5.3 9.45 5 10.65 5 11.99Z" fill="#2D72B7"/>
</g>
<defs>
<clipPath id="clip0_6_2">
<rect width="32" height="32" fill="white"/>
</clipPath>
</defs>
</svg>
