<svg width="28" height="27" viewBox="0 0 28 27" fill="none" xmlns="http://www.w3.org/2000/svg">
<path d="M12.1401 0.0324482C5.4457 0.0324482 0 5.12681 0 11.3893C0 17.6518 5.4457 22.7462 12.1401 22.7462C14.1866 22.7462 16.1984 22.2919 17.898 21.4158C18.0341 21.5691 18.185 21.7103 18.3489 21.8376L21.8175 25.0824C22.1378 25.4196 22.5283 25.6919 22.9652 25.8827C23.4021 26.0736 23.876 26.1788 24.3579 26.1921C24.8399 26.2054 25.3196 26.1264 25.7677 25.9599C26.2158 25.7935 26.6228 25.5431 26.9638 25.2242C27.3047 24.9052 27.5723 24.5245 27.7503 24.1053C27.9282 23.6861 28.0127 23.2373 27.9985 22.7864C27.9843 22.3356 27.8717 21.8922 27.6678 21.4836C27.4638 21.0749 27.1727 20.7095 26.8123 20.4099L23.3437 17.1651C23.1747 17.007 22.9887 16.8656 22.7887 16.7433C23.7252 15.1533 24.3149 13.3038 24.3149 11.3569C24.3149 5.09436 18.8692 0 12.1748 0L12.1401 0.0324482ZM12.1401 3.27727C16.9614 3.27727 20.8116 6.87901 20.8116 11.3893C20.8116 13.5309 19.9791 15.5102 18.5223 16.9704C18.4876 17.0028 18.4529 17.0353 18.4183 17.0677C18.2544 17.1951 18.1035 17.3363 17.9673 17.4896C16.4412 18.7875 14.36 19.5338 12.1054 19.5338C7.28406 19.5338 3.43391 15.9321 3.43391 11.4218C3.43391 6.91146 7.28406 3.30971 12.1054 3.30971L12.1401 3.27727Z" fill="#2D72B7"/>
</svg>
